<svg xmlns="http://www.w3.org/2000/svg" xmlns:xlink="http://www.w3.org/1999/xlink" viewBox="0 0 64 64"><pattern id="c" width="10.22" height="10.22" x="-84" y="-84" overflow="visible" patternUnits="userSpaceOnUse" viewBox="0 -10.22 10.22 10.22"><path fill="none" d="M0-10.22h10.22V0H0z"/><path fill="#39a380" d="M0-10.22h10.22V0H0z"/></pattern><pattern id="a" width="10.22" height="10.22" x="-84" y="-84" overflow="visible" patternUnits="userSpaceOnUse" viewBox="0 -10.22 10.22 10.22"><path fill="none" d="M0-10.22h10.22V0H0z"/><path fill="#292f63" d="M0-10.22h10.22V0H0z"/></pattern><pattern id="b" patternTransform="translate(-8.25 -1.467)" xlink:href="#a"/><path fill="url(#b)" d="M45.72 12.84a3.41 3.41 0 0 0-3.4 3.4v5.22c0 1.09-.89 1.98-1.98 1.98s-1.98-.89-1.98-1.98v-2.91l1.26-1.29c.2-.19.2-.5 0-.69-.2-.2-.51-.2-.7 0l-.56.57V10.7l.45-.46c.2-.2.19-.51 0-.7-.13-.12-.3-.16-.45-.12V5.15c0-.94-.27-1.8-.71-2.56l.91-1.17c.17-.22.13-.53-.09-.69a.484.484 0 0 0-.69.09l-.73.94C36.11.69 34.75 0 33.21 0c-1.86 0-3.48.99-4.38 2.47l-1.13-.66c-.23-.14-.53-.06-.67.18s-.06.53.18.67l1.19.7c-.21.56-.34 1.16-.34 1.79v33.51c0 1.21-.98 2.2-2.2 2.2s-2.2-.98-2.2-2.2V21.97l.96-.85c.2-.18.22-.49.04-.7a.501.501 0 0 0-.7-.04l-.42.37a3.477 3.477 0 0 0-3.36-2.6c-1.11 0-2.09.53-2.73 1.34l-.79-.69a.473.473 0 0 0-.69.04c-.19.21-.17.51.04.7l.94.82c-.16.39-.25.83-.25 1.27v12.14l-1.58.96c-.24.15-.31.44-.17.68.1.15.26.24.42.24.09 0 .18-.03.26-.08l1.06-.64v8.91c0 1.81 1.48 3.29 3.29 3.29.11 0 .22.02.32.02l-.54.55c-.19.2-.19.5.01.7.1.09.22.14.34.14s.26-.05.35-.15l1.07-1.09c3.35.7 5.89 3.61 6.03 7.14l-.53.54c-.19.2-.19.5.01.7.1.09.22.14.34.14.07 0 .14-.02.2-.04v7.73c0 .28.22.49.49.49h9.52c.28 0 .49-.22.49-.49v-8.29l1.97-.87c.25-.12.36-.4.26-.65a.499.499 0 0 0-.65-.26l-1.58.7v-13.4l1.23.96c.09.07.2.1.3.1.15 0 .3-.06.39-.19.17-.22.13-.52-.09-.69l-1.83-1.42v-3.76c0-2.76 2.25-5.01 5.01-5.01.34 0 .68-.03 1-.09l.57.65c.1.11.23.17.36.17.12 0 .24-.04.32-.13.21-.18.23-.49.05-.69l-.25-.28c2.28-.85 3.93-3.04 3.93-5.62v-8.51c.04-1.86-1.48-3.39-3.35-3.39zm2.41 11.9c0 2.29-1.57 4.21-3.67 4.8l-1.59-1.8a.484.484 0 0 0-.7-.04c-.21.18-.23.49-.04.69l1.17 1.34c-.06 0-.12.01-.19.01-3.3 0-6 2.7-6 6v2.99l-.24-.19a.484.484 0 0 0-.69.09c-.17.22-.13.52.09.69l.84.66v14.59l-.97.43a.5.5 0 0 0-.26.65c.09.18.27.3.45.3.07 0 .14-.02.2-.05l.58-.26V63h-8.54v-8.19l1.88-1.91c.19-.2.19-.5-.01-.7-.2-.19-.5-.19-.7.01l-1.27 1.3a8.577 8.577 0 0 0-6.14-7.03l.84-.86c.2-.2.2-.5 0-.7a.492.492 0 0 0-.7.01l-1.28 1.3c-.39-.06-.8-.1-1.21-.1a2.3 2.3 0 0 1-2.3-2.3v-9.51l.58-.36c.23-.14.31-.44.16-.67a.49.49 0 0 0-.68-.17l-.06.04V21.63c0-.19.02-.37.07-.55l.32.3c.1.08.22.12.33.12.13 0 .27-.05.36-.16.18-.21.16-.52-.04-.7l-.55-.49c.45-.61 1.17-1 1.99-1 1.34 0 2.43 1.06 2.49 2.39l-.78.68c-.21.19-.23.49-.04.7.1.11.23.17.36.17.12 0 .24-.04.32-.13l.14-.12v15.82c0 1.75 1.43 3.18 3.18 3.18 1.75 0 3.18-1.43 3.18-3.18V5.15c0-.45.1-.88.23-1.29l1.28.75c.08.04.17.06.25.06.17 0 .33-.09.42-.25.14-.23.06-.53-.18-.67l-1.36-.79c.74-1.18 2.04-1.98 3.53-1.98 1.31 0 2.46.62 3.23 1.57L35.4 3.88c-.14.22-.1.52.12.69.09.07.2.1.3.1.15 0 .3-.06.39-.19L37 3.44c.24.53.37 1.1.37 1.71v5.15l-1.97 2.01c-.19.19-.19.5.01.69.1.1.22.15.34.15s.26-.05.35-.15l1.26-1.29v6.43l-1.16 1.18c-.19.2-.19.51.01.7a.485.485 0 0 0 .69-.01l.45-.46v1.91c0 1.63 1.33 2.96 2.96 2.96s2.96-1.33 2.96-2.96v-5.22c0-1.33 1.08-2.41 2.41-2.41s2.41 1.08 2.41 2.41v8.5z"/><pattern id="d" patternTransform="translate(-8.25 -1.467)" xlink:href="#c"/><path fill="url(#d)" d="M48.13 16.24v8.51c0 2.29-1.57 4.21-3.67 4.8l-1.59-1.8a.484.484 0 0 0-.7-.04c-.21.18-.23.49-.04.69l1.17 1.34c-.06 0-.12.01-.19.01-3.3 0-6 2.7-6 6v2.99l-.24-.19a.484.484 0 0 0-.69.09c-.17.22-.13.52.09.69l.84.66v14.59l-.97.43a.5.5 0 0 0-.26.65c.09.18.27.3.45.3.07 0 .14-.02.2-.05l.58-.26v7.36h-8.54v-8.19l1.88-1.91c.19-.2.19-.5-.01-.7-.2-.19-.5-.19-.7.01l-1.27 1.3a8.577 8.577 0 0 0-6.14-7.03l.84-.86c.2-.2.2-.5 0-.7a.492.492 0 0 0-.7.01l-1.28 1.3c-.39-.06-.8-.1-1.21-.1a2.3 2.3 0 0 1-2.3-2.3v-9.51l.58-.36c.23-.14.31-.44.16-.67a.49.49 0 0 0-.68-.17l-.06.04V21.63c0-.19.02-.37.07-.55l.32.3c.1.08.22.12.33.12.13 0 .27-.05.36-.16.18-.21.16-.52-.04-.7l-.55-.49c.45-.61 1.17-1 1.99-1 1.34 0 2.43 1.06 2.49 2.39l-.78.68c-.21.19-.23.49-.04.7.1.11.23.17.36.17.12 0 .24-.04.32-.13l.14-.12v15.82c0 1.75 1.43 3.18 3.18 3.18 1.75 0 3.18-1.43 3.18-3.18V5.15c0-.45.1-.88.23-1.29l1.28.75c.08.04.17.06.25.06.17 0 .33-.09.42-.25.14-.23.06-.53-.18-.67l-1.36-.79c.74-1.18 2.04-1.98 3.53-1.98 1.31 0 2.46.62 3.23 1.57L35.4 3.88c-.14.22-.1.52.12.69.09.07.2.1.3.1.15 0 .3-.06.39-.19L37 3.44c.24.53.37 1.1.37 1.71v5.15l-1.97 2.01c-.19.19-.19.5.01.69.1.1.22.15.34.15s.26-.05.35-.15l1.26-1.29v6.43l-1.16 1.18c-.19.2-.19.51.01.7a.485.485 0 0 0 .69-.01l.45-.46v1.91c0 1.63 1.33 2.96 2.96 2.96s2.96-1.33 2.96-2.96v-5.22c0-1.33 1.08-2.41 2.41-2.41s2.45 1.08 2.45 2.41z"/></svg>