<svg xmlns="http://www.w3.org/2000/svg" enable-background="new 0 0 64 64" viewBox="0 0 64 64"><path fill="#6b6ba5" d="M59.75,3.72l-6.01-1.86c-0.9-0.27-1.82-0.6-2.82-1.01c-1.84-0.75-5.41-1.66-8.81,0.45
		c-3.81,2.36-6.13,7.79-6.91,16.14c-4.59-0.1-23.78,0.97-28.77,25.16c-0.73,6.31-2.95,16.9-5.86,18.48
		c-0.45,0.24-0.63,0.78-0.43,1.25c0.16,0.36,0.51,0.57,0.88,0.57c0.12,0,0.23-0.02,0.35-0.07c0.59-0.22,13.84-5.36,15.67-17.32
		c0.75,0.75,1.66,1.43,2.76,2.06l-2.91,2.36c-0.44,0.35-0.68,0.86-0.68,1.41v8.45c-0.28,1.53,0.23,2.47,0.73,2.99
		c0.98,1.03,2.56,1.22,3.63,1.22c0.56,0,0.97-0.06,1.05-0.07c3.05-0.19,4.39-0.64,4.79-1.6c0.1-0.24,0.27-0.89-0.35-1.59
		c-0.52-0.6-2.27-1.5-3.53-1.93l0.03-4.39c2.08-0.57,3.62-1.64,4.75-2.97V62.4c0,0.54,0.44,0.97,0.97,0.97h9.49
		c0.49,0,0.91-0.37,0.96-0.85c0.02-0.15,0.13-1.4-0.89-2.51c-0.97-1.06-2.58-1.58-4.82-1.49l-0.04-3.87
		c2.54,0.12,4.56-0.63,6.02-2.24c2.79-3.06,2.57-8.24,2.43-9.95c0.84-0.52,1.63-1.13,2.35-1.84c4.22-4.14,5.67-10.66,6.1-15.96h2.16
		v1.83c0,0.54,0.44,0.97,0.97,0.97c0.54,0,0.97-0.43,0.97-0.97v-2.8c0-0.53-0.43-0.97-0.97-0.97h-3.02c0.09-2.33,0-4.3-0.09-5.49
		l9.29,1.05c1.12,0.13,2.23-0.43,2.8-1.4c0.48-0.83,0.52-1.85,0.1-2.72c-0.44-0.86-1.26-1.45-2.23-1.57l-4.61-0.57l-0.91-1.69h8.61
		c0.54,0,0.97-0.44,0.97-0.97C63.93,6.77,62.25,4.49,59.75,3.72z M37.58,51.11c-1.07,1.18-2.54,1.7-4.49,1.62
		c-0.52-0.03-1.04,0.16-1.4,0.52c-0.38,0.36-0.59,0.86-0.59,1.37v3.9c0,0.52,0.2,1.01,0.57,1.36c0.37,0.36,0.87,0.55,1.39,0.54
		c1.62-0.04,2.76,0.26,3.34,0.86c0.05,0.05,0.09,0.1,0.13,0.15h-7.27V48.15c0.47-1.24,0.76-2.53,0.94-3.74
		c1.07,0.15,2.11,0.22,3.11,0.22c2.31,0,4.39-0.41,6.25-1.19C39.64,45.35,39.51,49.01,37.58,51.11z M48.42,8.42
		c-0.54,0-0.97,0.44-0.97,0.97s0.43,0.97,0.97,0.97h3.74l1.63,3.06c0.15,0.27,0.43,0.46,0.74,0.5l5.11,0.62
		c0.32,0.04,0.58,0.23,0.72,0.51c0.15,0.29,0.14,0.61-0.03,0.88c-0.18,0.32-0.55,0.49-0.9,0.45L48.94,15.2
		c-0.03,0-0.06,0.01-0.1,0.01s-0.09-0.01-0.13-0.01c-0.97,0.13-1.68-0.1-2.24-0.69c-2-2.09-1.49-8.06-1.13-10.19
		c0.1-0.53-0.26-1.03-0.78-1.12C44.02,3.12,43.53,3.48,43.43,4c-0.15,0.88-1.38,8.69,1.64,11.85c0.76,0.8,1.75,1.23,2.88,1.29
		c0.26,3.4,0.75,15.97-5.52,22.11c-2.91,2.85-6.97,3.94-12.06,3.23c0.12-2.44-0.15-4.28-0.16-4.33c-0.09-0.53-0.57-0.89-1.11-0.8
		c-0.52,0.09-0.88,0.58-0.8,1.11c0.02,0.12,1.8,11.86-6.25,14.11c-0.85,0.23-1.44,1.01-1.44,1.87v5.08c0,0.31,0.14,0.59,0.38,0.77
		c0.11,0.09,0.23,0.14,0.36,0.17c0.64,0.18,2.03,0.74,2.81,1.19c-0.46,0.13-1.29,0.26-2.72,0.35c-0.58,0.09-2.39,0.16-3.08-0.56
		c-0.1-0.11-0.41-0.44-0.21-1.36c0.01-0.07,0.02-0.14,0.02-0.19V51.4l4.03-3.25c0.25-0.21,0.39-0.54,0.35-0.87s-0.24-0.62-0.54-0.75
		c-3.13-1.49-4.89-3.32-5.23-5.46c-0.58-3.69,3.16-7.3,3.2-7.32c0.39-0.37,0.41-0.99,0.04-1.37c-0.37-0.39-0.98-0.41-1.37-0.04
		c-0.18,0.17-4.52,4.33-3.77,9.04c0.1,0.63,0.28,1.23,0.55,1.81c-0.04,0.11-0.08,0.21-0.08,0.33C14.95,51.57,8.6,56.65,4.39,59.15
		c2.66-5.52,3.81-14.96,3.96-16.25c4.99-24.2,24.46-23.73,27.32-23.52l2.76,2.76c0.18,0.19,0.44,0.29,0.68,0.29
		c0.25,0,0.5-0.1,0.69-0.29c0.38-0.38,0.38-0.99,0-1.36l-2.69-2.69c0.67-7.87,2.75-13.11,6.04-15.14c2.67-1.66,5.57-0.9,7.06-0.3
		c1.05,0.43,2.02,0.78,2.97,1.07l6.01,1.85c1.37,0.43,2.37,1.51,2.7,2.85H48.42z"/><path fill="#f1b974" d="M31.1,54.62v3.9c0,0.52,0.2,1.01,0.57,1.36c0.37,0.36,0.87,0.55,1.39,0.54c1.62-0.04,2.76,0.26,3.34,0.86
		c0.05,0.05,0.09,0.1,0.13,0.15h-7.27V48.15c0.47-1.24,0.76-2.53,0.94-3.74c1.07,0.15,2.11,0.22,3.11,0.22
		c2.31,0,4.39-0.41,6.25-1.19c0.09,1.92-0.05,5.57-1.97,7.67c-1.07,1.18-2.54,1.7-4.49,1.62c-0.52-0.03-1.04,0.16-1.4,0.52
		C31.31,53.61,31.1,54.11,31.1,54.62z"/><path fill="#ffcc94" d="M59.63,14.54l-5.11-0.62c-0.31-0.04-0.59-0.23-0.74-0.5l-1.63-3.06h-3.74c-0.54,0-0.97-0.44-0.97-0.97
		s0.43-0.97,0.97-0.97h13.46c-0.33-1.34-1.33-2.43-2.7-2.85l-6.01-1.85c-0.95-0.29-1.92-0.65-2.97-1.07
		c-1.49-0.6-4.39-1.36-7.06,0.3c-3.29,2.03-5.37,7.28-6.04,15.14l2.69,2.69c0.38,0.38,0.38,0.99,0,1.36
		c-0.18,0.19-0.44,0.29-0.69,0.29c-0.24,0-0.49-0.1-0.68-0.29l-2.76-2.76c-2.85-0.2-22.32-0.68-27.32,23.52
		c-0.15,1.29-1.3,10.73-3.96,16.25c4.21-2.51,10.56-7.59,10.93-15.65c0-0.12,0.04-0.22,0.08-0.33c-0.27-0.58-0.45-1.18-0.55-1.81
		c-0.75-4.71,3.59-8.86,3.77-9.04c0.4-0.37,1.01-0.35,1.37,0.04c0.37,0.39,0.35,1.01-0.04,1.37c-0.04,0.03-3.78,3.64-3.2,7.32
		c0.35,2.14,2.1,3.97,5.23,5.46c0.3,0.14,0.5,0.43,0.54,0.75s-0.1,0.66-0.35,0.87l-4.03,3.25v8.49c0,0.06-0.01,0.13-0.02,0.19
		c-0.19,0.93,0.12,1.26,0.21,1.36c0.69,0.73,2.5,0.65,3.08,0.56c1.43-0.09,2.25-0.22,2.72-0.35c-0.77-0.45-2.17-1.01-2.81-1.19
		c-0.13-0.04-0.25-0.09-0.36-0.17c-0.24-0.18-0.38-0.46-0.38-0.77v-5.08c0-0.86,0.59-1.64,1.44-1.87
		c8.05-2.24,6.27-13.99,6.25-14.11c-0.08-0.53,0.28-1.03,0.8-1.11c0.54-0.09,1.03,0.27,1.11,0.8c0.01,0.05,0.28,1.89,0.16,4.33
		c5.09,0.71,9.14-0.38,12.06-3.23c6.26-6.13,5.78-18.71,5.52-22.11c-1.13-0.06-2.12-0.48-2.88-1.29C42.05,12.69,43.29,4.88,43.43,4
		c0.1-0.52,0.58-0.88,1.12-0.79c0.52,0.1,0.88,0.59,0.78,1.12c-0.36,2.13-0.87,8.1,1.13,10.19c0.56,0.59,1.28,0.81,2.24,0.69
		c0.04,0,0.09,0.01,0.13,0.01s0.07-0.01,0.1-0.01l10.48,1.18c0.35,0.04,0.72-0.14,0.9-0.45c0.16-0.27,0.17-0.59,0.03-0.88
		C60.21,14.77,59.95,14.58,59.63,14.54z M48.84,4.69c0.2-0.49,0.77-0.74,1.26-0.53l0.69,0.27c0.49,0.2,0.74,0.76,0.53,1.26
		c-0.15,0.38-0.51,0.61-0.89,0.61c-0.13,0-0.24-0.02-0.37-0.07l-0.68-0.28C48.89,5.75,48.65,5.19,48.84,4.69z M43.17,22.77
		c0.49,0.21,0.71,0.78,0.49,1.28l-1.65,3.67l0.84,0.05c1.04,0.06,1.86,0.89,1.92,1.92l0.17,3.21c0.03,0.53-0.38,0.99-0.91,1.02
		h-0.06c-0.51,0-0.94-0.4-0.97-0.91l-0.17-3.21c0-0.05-0.04-0.09-0.09-0.09l-2.24-0.13c-0.32-0.02-0.61-0.19-0.77-0.46
		c-0.16-0.27-0.18-0.61-0.06-0.9l2.23-4.95C42.12,22.77,42.69,22.55,43.17,22.77z"/><path fill="#6b6ba5" d="M51.32 5.68c-.15.38-.51.61-.89.61-.13 0-.24-.02-.37-.07l-.68-.28c-.49-.19-.74-.75-.54-1.26.2-.49.77-.74 1.26-.53l.69.27C51.28 4.63 51.52 5.19 51.32 5.68zM44.94 32.89c.03.53-.38.99-.91 1.02h-.06c-.51 0-.94-.4-.97-.91l-.17-3.21c0-.05-.04-.09-.09-.09l-2.24-.13c-.32-.02-.61-.19-.77-.46-.16-.27-.18-.61-.06-.9l2.23-4.95c.22-.48.79-.71 1.28-.48.49.21.71.78.49 1.28l-1.65 3.67.84.05c1.04.06 1.86.89 1.92 1.92L44.94 32.89z"/></svg>